# xmcd
#
# Track frame offsets:
#	150
#	13745
#	28940
#	44250
#	67317
#	79742
#	92615
#	106107
#	125152
#	141045
#	163740
#	180292
#
# Disc length: 2537 seconds
#
# Revision: 0
# Processed by: cddbd v1.5.2PL0 Copyright (c) Steve Scherf et al.
# Submitted via: dBpowerAMP V4.0
#
DISCID=9f09e70c
DTITLE=Various Artist - The love compilation
DYEAR=1900
DGENRE=
TTITLE0=Marilyn Monroe - I wanna be loved by you
TTITLE1=Nina Simone - Love me or leave me
TTITLE2=Marlene Dietrich - Lili Marlen
TTITLE3=Marilyn Monroe - My heart belongs to daddy
TTITLE4=Nina Simone - Don't let me be misunderstood
TTITLE5=Ray Charles - Unchain my heart
TTITLE6=Marilyn Monroe - Kiss
TTITLE7=Ray Charles - I can't stop loving you
TTITLE8=Marilyn Monroe - MDiamonds are a girl's best friend
TTITLE9=Louis Armstrong - La vie en rose
TTITLE10=Ray Charles - Georgia on my mind
TTITLE11=Ray Charles - Sticks and stones
EXTD=
EXTT0=
EXTT1=
EXTT2=
EXTT3=
EXTT4=
EXTT5=
EXTT6=
EXTT7=
EXTT8=
EXTT9=
EXTT10=
EXTT11=
PLAYORDER=
